<svg width="868" height="358" viewBox="0 0 868 358" fill="none" xmlns="http://www.w3.org/2000/svg">
<path d="M423.081 108.258C425.798 108.258 427.934 106.074 427.934 103.405V4.85243C427.934 2.86293 426.72 1.11606 424.974 0.388194H424.925C424.391 0.145573 423.76 0 423.081 0H250.141C247.472 0 245.288 2.18359 245.288 4.85243V14.1691C255.43 26.0575 261.544 41.4882 261.544 58.2776C261.544 75.067 255.575 90.2066 245.288 102.192V103.405C245.288 106.074 247.472 108.258 250.141 108.258H283.331V226.802C283.331 229.471 285.515 231.655 288.184 231.655H386.688C389.357 231.655 391.54 229.471 391.54 226.802V108.258H423.081Z" fill="white"/>
<path d="M216.319 120.631L205.595 116.167L216.319 111.654C223.743 108.549 230.246 104.036 235.583 98.4557C237.379 96.6603 238.98 94.7194 240.436 92.6814C242.28 90.2551 243.929 87.6833 245.288 84.966C249.51 76.911 251.839 67.7884 251.839 58.2776C251.839 48.7669 249.461 39.4502 245.288 31.3952C243.881 28.6293 242.231 26.0575 240.436 23.5828C238.931 21.5448 237.33 19.6523 235.583 17.8569C225.054 6.84192 210.254 0 193.901 0H96.8524C94.1836 0 92 2.18359 92 4.85243V226.802C92 229.471 94.1836 231.655 96.8524 231.655H193.901C225.83 231.655 251.839 205.694 251.839 173.765C251.839 150.474 237.912 129.608 216.319 120.631Z" fill="white"/>
<path d="M771.34 0H669.439C666.77 0 664.586 2.18359 664.586 4.85243V111.606C664.586 114.275 666.77 116.458 669.439 116.458H710.684V109.18H739.799V116.458H771.34C774.008 116.458 776.192 114.275 776.192 111.606V4.85243C776.192 2.18359 774.008 0 771.34 0ZM722.136 78.8519H718.594V82.3942H704.376V85.985H700.785V93.0695H722.136V100.203H693.701V82.3942H697.243V78.8519H700.785V75.3097H715.052V68.1766H700.785V71.7189H693.701V64.6343H697.243V61.0435H718.594V64.6343H722.136V78.8519ZM722.136 32.3657H718.594V35.908H704.376V39.4987H700.785V46.5833H722.136V53.7164H693.701V35.908H697.243V32.3657H700.785V28.8234H715.052V21.6903H700.785V25.2326H693.701V18.1481H697.243V14.5573H718.594V18.1481H722.136V32.3657ZM751.93 71.7189H744.797V68.1766H734.122V71.7189H730.579V75.3097H744.797V78.8519H748.339V82.3942H751.93V96.6603H748.339V100.203H730.579V96.6603H726.988V93.0695H723.446V68.1766H726.988V64.6343H730.579V61.0435H748.339V64.6343H751.93V71.7189ZM751.93 50.1741H748.339V53.7164H726.988V50.1741H723.446V18.1481H726.988V14.5573H748.339V18.1481H751.93V50.1741Z" fill="white"/>
<path d="M730.579 89.5273H734.122V93.0695H741.255V89.5273H744.797V85.985H741.255V82.3942H730.579V89.5273Z" fill="white"/>
<path d="M730.579 35.908H734.122V32.3657H737.664V28.8234H741.255V25.2326H744.797V21.6903H730.579V35.908Z" fill="white"/>
<path d="M741.255 35.908H737.664V39.4987H734.122V43.041H730.579V46.5833H744.797V32.3657H741.255V35.908Z" fill="white"/>
<path d="M734.946 114.032H715.537V133.442H734.946V114.032ZM722.815 126.163H717.963V121.311H722.815V126.163ZM732.52 126.163H727.668V121.311H732.52V126.163Z" fill="white"/>
<path d="M708.258 174.687H722.815V189.245C722.815 191.913 720.632 194.097 717.963 194.097H653.62V4.85243C653.62 2.18359 651.436 0 648.767 0H436.765C437.347 1.50425 437.638 3.15408 437.638 4.85243V103.405C437.638 111.412 431.136 117.962 423.081 117.962H421.965V220.058C421.965 223.066 424.246 224.231 424.925 224.522C425.604 224.813 428.079 225.589 430.214 223.503L538.423 116.458L645.322 223.406C647.457 225.541 649.883 224.716 650.611 224.425C651.291 224.134 653.62 222.969 653.62 219.96V203.802H717.963C725.969 203.802 732.52 197.251 732.52 189.245V174.687H742.225V140.72H708.258V174.687Z" fill="white"/>
<path d="M12.6562 339V331.73H27.8774C30.654 331.73 32.7996 330.973 34.3142 329.458C35.8287 327.893 36.586 325.773 36.586 323.097C36.586 320.321 35.7782 318.125 34.1627 316.509C32.5472 314.894 30.3006 314.086 27.423 314.086H12.6562V306.816H26.7415C29.4676 306.816 31.5628 306.16 33.0268 304.847C34.4909 303.534 35.2229 301.641 35.2229 299.167C35.2229 296.744 34.5161 294.902 33.1025 293.639C31.7395 292.377 29.7201 291.746 27.0444 291.746H12.6562V284.476H28.8618C33.7588 284.476 37.6714 285.713 40.5995 288.187C43.5781 290.61 45.0674 293.917 45.0674 298.107C45.0674 300.733 44.4364 303.03 43.1743 304.998C41.9626 306.917 40.3219 308.406 38.252 309.466C36.1821 310.527 33.8346 311.057 31.2094 311.057L31.588 309.466C34.3647 309.466 36.8889 310.097 39.1607 311.36C41.4325 312.571 43.2247 314.288 44.5374 316.509C45.9004 318.73 46.582 321.305 46.582 324.233C46.582 327.212 45.8752 329.812 44.4616 332.033C43.0985 334.254 41.1549 335.971 38.6306 337.183C36.1569 338.394 33.2288 339 29.8463 339H12.6562ZM4.93203 339V284.476H14.7766V339H4.93203ZM75.337 339C75.0846 337.99 74.8827 336.88 74.7312 335.668C74.6302 334.456 74.5798 332.992 74.5798 331.276H74.2768V312.95C74.2768 310.93 73.6963 309.416 72.5351 308.406C71.4245 307.346 69.708 306.816 67.3857 306.816C65.1139 306.816 63.2964 307.245 61.9333 308.103C60.6207 308.911 59.813 310.097 59.51 311.662H50.347C50.7509 308.078 52.4674 305.175 55.4965 302.954C58.5256 300.733 62.5896 299.622 67.6886 299.622C72.9895 299.622 77.003 300.833 79.7292 303.257C82.4554 305.63 83.8185 309.138 83.8185 313.783V331.276C83.8185 332.487 83.8942 333.724 84.0457 334.986C84.2476 336.249 84.5253 337.586 84.8787 339H75.337ZM61.9333 339.757C58.046 339.757 54.9412 338.798 52.6189 336.88C50.347 334.911 49.2111 332.286 49.2111 329.004C49.2111 325.47 50.4985 322.668 53.0732 320.598C55.648 318.528 59.2829 317.14 63.9779 316.433L76.0186 314.616V320.674L65.5682 322.264C63.2964 322.618 61.5799 323.249 60.4188 324.157C59.3081 325.066 58.7528 326.328 58.7528 327.944C58.7528 329.408 59.2829 330.544 60.343 331.352C61.4032 332.109 62.8673 332.487 64.7352 332.487C67.4614 332.487 69.7332 331.806 71.5507 330.443C73.3681 329.08 74.2768 327.414 74.2768 325.445L75.337 331.276C74.3273 334.052 72.6613 336.173 70.339 337.637C68.0672 339.05 65.2653 339.757 61.9333 339.757ZM113.247 339.757C109.562 339.757 106.533 338.899 104.16 337.183C101.838 335.416 100.399 332.992 99.8437 329.913L100.525 329.837V339H91.2108V284.476H100.752V309.088L100.071 308.936C100.727 306.059 102.267 303.787 104.69 302.121C107.164 300.455 110.218 299.622 113.853 299.622C117.286 299.622 120.265 300.455 122.789 302.121C125.364 303.736 127.358 306.033 128.771 309.012C130.185 311.991 130.892 315.499 130.892 319.538C130.892 323.627 130.16 327.187 128.696 330.216C127.232 333.245 125.187 335.592 122.562 337.258C119.937 338.924 116.832 339.757 113.247 339.757ZM110.824 331.882C113.904 331.882 116.352 330.821 118.17 328.701C119.987 326.53 120.896 323.501 120.896 319.614C120.896 315.727 119.962 312.723 118.094 310.602C116.276 308.482 113.828 307.422 110.748 307.422C107.719 307.422 105.271 308.507 103.403 310.678C101.535 312.798 100.601 315.802 100.601 319.69C100.601 323.577 101.535 326.581 103.403 328.701C105.271 330.821 107.745 331.882 110.824 331.882ZM153.226 339.757C149.339 339.757 145.906 338.899 142.927 337.183C139.999 335.466 137.677 333.093 135.96 330.064C134.294 326.985 133.461 323.501 133.461 319.614C133.461 315.727 134.294 312.294 135.96 309.315C137.677 306.286 139.999 303.913 142.927 302.197C145.906 300.48 149.339 299.622 153.226 299.622C156.407 299.622 159.284 300.228 161.859 301.439C164.434 302.6 166.554 304.266 168.22 306.437C169.886 308.558 170.946 311.031 171.401 313.859H162.238C161.682 311.789 160.622 310.173 159.057 309.012C157.492 307.851 155.599 307.27 153.377 307.27C151.308 307.27 149.515 307.775 148.001 308.785C146.537 309.795 145.401 311.233 144.593 313.101C143.785 314.969 143.381 317.14 143.381 319.614C143.381 322.138 143.785 324.334 144.593 326.202C145.401 328.07 146.562 329.534 148.077 330.594C149.591 331.604 151.358 332.109 153.377 332.109C155.599 332.109 157.492 331.528 159.057 330.367C160.622 329.206 161.682 327.59 162.238 325.521H171.401C170.946 328.348 169.861 330.847 168.144 333.018C166.478 335.138 164.358 336.804 161.783 338.016C159.259 339.177 156.407 339.757 153.226 339.757ZM193.348 339.757C189.259 339.757 185.649 338.899 182.519 337.183C179.44 335.466 177.042 333.093 175.325 330.064C173.609 326.985 172.751 323.476 172.751 319.538C172.751 315.6 173.609 312.142 175.325 309.163C177.042 306.185 179.44 303.863 182.519 302.197C185.649 300.48 189.259 299.622 193.348 299.622C197.488 299.622 201.098 300.48 204.177 302.197C207.257 303.863 209.655 306.185 211.371 309.163C213.088 312.142 213.946 315.6 213.946 319.538C213.946 323.476 213.063 326.985 211.296 330.064C209.579 333.093 207.181 335.466 204.102 337.183C201.022 338.899 197.438 339.757 193.348 339.757ZM193.348 332.109C195.368 332.109 197.185 331.604 198.801 330.594C200.416 329.534 201.678 328.07 202.587 326.202C203.496 324.284 203.95 322.037 203.95 319.462C203.95 315.676 202.941 312.697 200.921 310.527C198.952 308.356 196.428 307.27 193.348 307.27C190.269 307.27 187.719 308.356 185.7 310.527C183.681 312.697 182.671 315.676 182.671 319.462C182.671 322.037 183.125 324.284 184.034 326.202C184.993 328.07 186.255 329.534 187.82 330.594C189.436 331.604 191.279 332.109 193.348 332.109ZM235.428 339.757C231.541 339.757 228.108 338.899 225.13 337.183C222.201 335.466 219.879 333.093 218.163 330.064C216.497 326.985 215.664 323.501 215.664 319.614C215.664 315.727 216.497 312.294 218.163 309.315C219.879 306.286 222.201 303.913 225.13 302.197C228.108 300.48 231.541 299.622 235.428 299.622C238.609 299.622 241.487 300.228 244.061 301.439C246.636 302.6 248.756 304.266 250.422 306.437C252.088 308.558 253.149 311.031 253.603 313.859H244.44C243.885 311.789 242.824 310.173 241.259 309.012C239.694 307.851 237.801 307.27 235.58 307.27C233.51 307.27 231.718 307.775 230.203 308.785C228.739 309.795 227.603 311.233 226.796 313.101C225.988 314.969 225.584 317.14 225.584 319.614C225.584 322.138 225.988 324.334 226.796 326.202C227.603 328.07 228.764 329.534 230.279 330.594C231.794 331.604 233.561 332.109 235.58 332.109C237.801 332.109 239.694 331.528 241.259 330.367C242.824 329.206 243.885 327.59 244.44 325.521H253.603C253.149 328.348 252.063 330.847 250.347 333.018C248.681 335.138 246.56 336.804 243.986 338.016C241.461 339.177 238.609 339.757 235.428 339.757ZM258.204 339V283.946H267.746V339H258.204ZM283.118 339L265.55 318.932L282.588 300.379H294.099L274.41 320.674L274.94 317.115L294.856 339H283.118ZM325.675 339V292.276H307.576V284.476H353.619V292.276H335.52V339H325.675ZM367.235 339.757C363.145 339.757 359.561 338.899 356.481 337.183C353.452 335.466 351.079 333.093 349.363 330.064C347.697 327.035 346.864 323.552 346.864 319.614C346.864 315.676 347.697 312.218 349.363 309.239C351.079 306.21 353.452 303.863 356.481 302.197C359.51 300.48 363.044 299.622 367.083 299.622C370.92 299.622 374.252 300.43 377.079 302.045C379.906 303.61 382.102 305.831 383.667 308.709C385.232 311.587 386.015 314.944 386.015 318.781C386.015 319.488 385.99 320.144 385.939 320.75C385.889 321.356 385.813 321.961 385.712 322.567H352.771V315.903H378.367L376.398 317.721C376.398 314.086 375.565 311.36 373.899 309.542C372.233 307.725 369.91 306.816 366.932 306.816C363.701 306.816 361.126 307.927 359.208 310.148C357.34 312.369 356.406 315.575 356.406 319.765C356.406 323.905 357.34 327.086 359.208 329.307C361.126 331.478 363.827 332.563 367.31 332.563C369.33 332.563 371.097 332.185 372.611 331.427C374.126 330.67 375.236 329.509 375.943 327.944H384.955C383.693 331.579 381.547 334.456 378.518 336.577C375.539 338.697 371.778 339.757 367.235 339.757ZM408.137 339.757C404.249 339.757 400.817 338.899 397.838 337.183C394.91 335.466 392.587 333.093 390.871 330.064C389.205 326.985 388.372 323.501 388.372 319.614C388.372 315.727 389.205 312.294 390.871 309.315C392.587 306.286 394.91 303.913 397.838 302.197C400.817 300.48 404.249 299.622 408.137 299.622C411.317 299.622 414.195 300.228 416.77 301.439C419.344 302.6 421.465 304.266 423.131 306.437C424.797 308.558 425.857 311.031 426.311 313.859H417.148C416.593 311.789 415.533 310.173 413.968 309.012C412.403 307.851 410.51 307.27 408.288 307.27C406.218 307.27 404.426 307.775 402.912 308.785C401.448 309.795 400.312 311.233 399.504 313.101C398.696 314.969 398.292 317.14 398.292 319.614C398.292 322.138 398.696 324.334 399.504 326.202C400.312 328.07 401.473 329.534 402.987 330.594C404.502 331.604 406.269 332.109 408.288 332.109C410.51 332.109 412.403 331.528 413.968 330.367C415.533 329.206 416.593 327.59 417.148 325.521H426.311C425.857 328.348 424.772 330.847 423.055 333.018C421.389 335.138 419.269 336.804 416.694 338.016C414.17 339.177 411.317 339.757 408.137 339.757ZM430.912 339V284.476H440.454V339H430.912ZM458.023 339V314.616C458.023 312.243 457.417 310.451 456.205 309.239C454.994 308.028 453.227 307.422 450.904 307.422C448.885 307.422 447.067 307.876 445.452 308.785C443.887 309.694 442.65 310.956 441.741 312.571C440.883 314.187 440.454 316.055 440.454 318.175L439.47 308.936C440.782 306.109 442.701 303.863 445.225 302.197C447.749 300.48 450.778 299.622 454.312 299.622C458.502 299.622 461.759 300.808 464.081 303.181C466.454 305.554 467.64 308.709 467.64 312.647V339H458.023ZM500.935 339L485.259 284.476H495.255L508.583 334.532H505.705L518.049 284.476H529.408L541.6 334.532H538.798L552.126 284.476H561.668L545.992 339H534.785L522.365 290.08H524.713L512.142 339H500.935ZM580.099 339.757C576.01 339.757 572.425 338.899 569.346 337.183C566.317 335.466 563.944 333.093 562.227 330.064C560.561 327.035 559.728 323.552 559.728 319.614C559.728 315.676 560.561 312.218 562.227 309.239C563.944 306.21 566.317 303.863 569.346 302.197C572.375 300.48 575.909 299.622 579.948 299.622C583.784 299.622 587.116 300.43 589.944 302.045C592.771 303.61 594.967 305.831 596.532 308.709C598.097 311.587 598.879 314.944 598.879 318.781C598.879 319.488 598.854 320.144 598.804 320.75C598.753 321.356 598.678 321.961 598.577 322.567H565.635V315.903H591.231L589.262 317.721C589.262 314.086 588.429 311.36 586.763 309.542C585.097 307.725 582.775 306.816 579.796 306.816C576.565 306.816 573.99 307.927 572.072 310.148C570.204 312.369 569.27 315.575 569.27 319.765C569.27 323.905 570.204 327.086 572.072 329.307C573.99 331.478 576.691 332.563 580.175 332.563C582.194 332.563 583.961 332.185 585.476 331.427C586.99 330.67 588.101 329.509 588.808 327.944H597.819C596.557 331.579 594.412 334.456 591.382 336.577C588.404 338.697 584.643 339.757 580.099 339.757ZM621.607 339.757C617.518 339.757 613.933 338.899 610.854 337.183C607.825 335.466 605.452 333.093 603.735 330.064C602.069 327.035 601.236 323.552 601.236 319.614C601.236 315.676 602.069 312.218 603.735 309.239C605.452 306.21 607.825 303.863 610.854 302.197C613.883 300.48 617.417 299.622 621.456 299.622C625.292 299.622 628.624 300.43 631.452 302.045C634.279 303.61 636.475 305.831 638.04 308.709C639.605 311.587 640.387 314.944 640.387 318.781C640.387 319.488 640.362 320.144 640.312 320.75C640.261 321.356 640.185 321.961 640.084 322.567H607.143V315.903H632.739L630.77 317.721C630.77 314.086 629.937 311.36 628.271 309.542C626.605 307.725 624.283 306.816 621.304 306.816C618.073 306.816 615.498 307.927 613.58 310.148C611.712 312.369 610.778 315.575 610.778 319.765C610.778 323.905 611.712 327.086 613.58 329.307C615.498 331.478 618.199 332.563 621.683 332.563C623.702 332.563 625.469 332.185 626.984 331.427C628.498 330.67 629.609 329.509 630.316 327.944H639.327C638.065 331.579 635.919 334.456 632.89 336.577C629.912 338.697 626.151 339.757 621.607 339.757ZM645.256 339V283.946H654.797V339H645.256ZM670.17 339L652.601 318.932L669.64 300.379H681.15L661.461 320.674L661.992 317.115L681.908 339H670.17ZM694.78 339V331.2C699.929 326.959 704.22 323.299 707.653 320.22C711.137 317.09 713.913 314.338 715.983 311.965C718.053 309.593 719.517 307.422 720.375 305.453C721.284 303.433 721.739 301.465 721.739 299.546C721.739 297.022 721.032 295.053 719.618 293.639C718.205 292.226 716.236 291.519 713.711 291.519C711.086 291.519 708.941 292.302 707.275 293.867C705.609 295.381 704.599 297.527 704.246 300.303H694.25C694.805 295.204 696.85 291.166 700.383 288.187C703.917 285.208 708.511 283.719 714.166 283.719C719.77 283.719 724.162 285.183 727.342 288.111C730.573 290.989 732.189 295.002 732.189 300.152C732.189 302.727 731.735 305.226 730.826 307.649C729.968 310.022 728.503 312.521 726.434 315.146C724.414 317.721 721.688 320.573 718.255 323.703C714.873 326.783 710.632 330.291 705.533 334.229L703.185 331.2H733.173V339H694.78ZM758.207 339.757C753.764 339.757 749.826 338.571 746.393 336.198C742.96 333.775 740.259 330.443 738.29 326.202C736.372 321.911 735.413 317.014 735.413 311.511C735.413 306.008 736.372 301.187 738.29 297.047C740.209 292.857 742.884 289.601 746.317 287.278C749.801 284.906 753.764 283.719 758.207 283.719C762.7 283.719 766.663 284.906 770.096 287.278C773.529 289.601 776.204 292.857 778.123 297.047C780.092 301.187 781.076 306.008 781.076 311.511C781.076 317.064 780.092 321.961 778.123 326.202C776.204 330.443 773.529 333.775 770.096 336.198C766.663 338.571 762.7 339.757 758.207 339.757ZM758.207 331.503C760.983 331.503 763.28 330.62 765.098 328.853C766.915 327.086 768.278 324.688 769.187 321.658C770.146 318.629 770.626 315.222 770.626 311.435C770.626 307.649 770.171 304.292 769.263 301.364C768.354 298.435 766.966 296.138 765.098 294.472C763.28 292.806 760.983 291.973 758.207 291.973C755.48 291.973 753.183 292.832 751.315 294.548C749.498 296.214 748.135 298.511 747.226 301.439C746.317 304.367 745.863 307.699 745.863 311.435C745.863 315.272 746.317 318.705 747.226 321.734C748.135 324.763 749.523 327.161 751.391 328.928C753.259 330.645 755.531 331.503 758.207 331.503ZM783.342 339V331.2C788.491 326.959 792.783 323.299 796.216 320.22C799.699 317.09 802.476 314.338 804.546 311.965C806.616 309.593 808.08 307.422 808.938 305.453C809.847 303.433 810.301 301.465 810.301 299.546C810.301 297.022 809.594 295.053 808.181 293.639C806.767 292.226 804.798 291.519 802.274 291.519C799.649 291.519 797.503 292.302 795.837 293.867C794.171 295.381 793.161 297.527 792.808 300.303H782.812C783.367 295.204 785.412 291.166 788.946 288.187C792.48 285.208 797.074 283.719 802.728 283.719C808.332 283.719 812.724 285.183 815.905 288.111C819.136 290.989 820.751 295.002 820.751 300.152C820.751 302.727 820.297 305.226 819.388 307.649C818.53 310.022 817.066 312.521 814.996 315.146C812.977 317.721 810.25 320.573 806.817 323.703C803.435 326.783 799.194 330.291 794.095 334.229L791.748 331.2H821.736V339H783.342ZM845.633 339.757C838.717 339.757 833.365 337.435 829.579 332.79C825.843 328.095 823.975 321.431 823.975 312.798C823.975 306.74 824.858 301.54 826.625 297.199C828.443 292.857 831.018 289.525 834.35 287.203C837.732 284.88 841.695 283.719 846.239 283.719C851.338 283.719 855.503 285.107 858.734 287.884C861.965 290.61 863.959 294.422 864.716 299.319H854.72C854.417 296.795 853.483 294.876 851.918 293.564C850.404 292.201 848.485 291.519 846.163 291.519C842.225 291.519 839.247 293.21 837.227 296.593C835.258 299.975 834.274 305.175 834.274 312.193V317.115L832.154 316.433C832.658 314.01 833.643 311.915 835.107 310.148C836.571 308.381 838.414 307.018 840.635 306.059C842.856 305.099 845.305 304.62 847.981 304.62C851.464 304.62 854.518 305.352 857.144 306.816C859.769 308.28 861.813 310.325 863.277 312.95C864.792 315.525 865.549 318.579 865.549 322.113C865.549 325.647 864.716 328.752 863.05 331.427C861.384 334.052 859.062 336.097 856.083 337.561C853.105 339.025 849.621 339.757 845.633 339.757ZM845.103 331.957C847.981 331.957 850.353 331.099 852.221 329.383C854.089 327.666 855.023 325.243 855.023 322.113C855.023 318.932 854.089 316.509 852.221 314.843C850.353 313.127 847.93 312.268 844.951 312.268C842.023 312.268 839.55 313.101 837.53 314.767C835.561 316.383 834.577 318.73 834.577 321.81C834.577 323.88 835.056 325.697 836.016 327.262C836.975 328.777 838.237 329.938 839.802 330.746C841.418 331.553 843.184 331.957 845.103 331.957Z" fill="#F5FAF9"/>
</svg>
