<svg width="685" height="232" viewBox="0 0 685 232" fill="none" xmlns="http://www.w3.org/2000/svg">
<path d="M331.081 108.258C333.798 108.258 335.933 106.074 335.933 103.405V4.85243C335.933 2.86293 334.72 1.11606 332.974 0.388194H332.925C332.391 0.145573 331.76 0 331.081 0H158.141C155.472 0 153.288 2.18359 153.288 4.85243V14.1691C163.43 26.0575 169.544 41.4882 169.544 58.2776C169.544 75.067 163.575 90.2066 153.288 102.192V103.405C153.288 106.074 155.472 108.258 158.141 108.258H191.331V226.802C191.331 229.471 193.515 231.655 196.184 231.655H294.688C297.357 231.655 299.54 229.471 299.54 226.802V108.258H331.081Z" fill="white"/>
<path d="M124.319 120.631L113.595 116.167L124.319 111.654C131.743 108.549 138.246 104.036 143.583 98.4557C145.379 96.6603 146.98 94.7194 148.436 92.6813C150.28 90.2551 151.929 87.6833 153.288 84.966C157.51 76.911 159.839 67.7884 159.839 58.2776C159.839 48.7669 157.461 39.4502 153.288 31.3952C151.881 28.6293 150.231 26.0575 148.436 23.5828C146.931 21.5448 145.33 19.6523 143.583 17.8569C133.054 6.84192 118.254 0 101.901 0H4.85243C2.18359 0 0 2.18359 0 4.85243V226.802C0 229.471 2.18359 231.655 4.85243 231.655H101.901C133.83 231.655 159.839 205.694 159.839 173.765C159.839 150.474 145.912 129.608 124.319 120.631Z" fill="white"/>
<path d="M679.34 0H577.439C574.77 0 572.586 2.18359 572.586 4.85243V111.606C572.586 114.275 574.77 116.458 577.439 116.458H618.684V109.18H647.799V116.458H679.34C682.009 116.458 684.192 114.275 684.192 111.606V4.85243C684.192 2.18359 682.009 0 679.34 0ZM630.136 78.8519H626.594V82.3942H612.376V85.985H608.785V93.0695H630.136V100.203H601.701V82.3942H605.243V78.8519H608.785V75.3097H623.051V68.1766H608.785V71.7189H601.701V64.6343H605.243V61.0435H626.594V64.6343H630.136V78.8519ZM630.136 32.3657H626.594V35.908H612.376V39.4988H608.785V46.5833H630.136V53.7164H601.701V35.908H605.243V32.3657H608.785V28.8234H623.051V21.6903H608.785V25.2326H601.701V18.1481H605.243V14.5573H626.594V18.1481H630.136V32.3657ZM659.93 71.7189H652.797V68.1766H642.122V71.7189H638.579V75.3097H652.797V78.8519H656.339V82.3942H659.93V96.6603H656.339V100.203H638.579V96.6603H634.988V93.0695H631.446V68.1766H634.988V64.6343H638.579V61.0435H656.339V64.6343H659.93V71.7189ZM659.93 50.1741H656.339V53.7164H634.988V50.1741H631.446V18.1481H634.988V14.5573H656.339V18.1481H659.93V50.1741Z" fill="white"/>
<path d="M638.579 89.5273H642.122V93.0695H649.255V89.5273H652.797V85.985H649.255V82.3942H638.579V89.5273Z" fill="white"/>
<path d="M638.579 35.908H642.122V32.3657H645.664V28.8234H649.255V25.2326H652.797V21.6903H638.579V35.908Z" fill="white"/>
<path d="M649.255 35.908H645.664V39.4988H642.122V43.041H638.579V46.5833H652.797V32.3657H649.255V35.908Z" fill="white"/>
<path d="M642.946 114.032H623.537V133.442H642.946V114.032ZM630.815 126.163H625.963V121.311H630.815V126.163ZM640.52 126.163H635.668V121.311H640.52V126.163Z" fill="white"/>
<path d="M616.258 174.687H630.815V189.245C630.815 191.913 628.632 194.097 625.963 194.097H561.62V4.85243C561.62 2.18359 559.436 0 556.767 0H344.765C345.347 1.50425 345.638 3.15408 345.638 4.85243V103.405C345.638 111.412 339.136 117.962 331.081 117.962H329.965V220.058C329.965 223.066 332.246 224.231 332.925 224.522C333.604 224.813 336.079 225.589 338.214 223.503L446.423 116.458L553.322 223.406C555.457 225.541 557.883 224.716 558.611 224.425C559.291 224.134 561.62 222.969 561.62 219.96V203.802H625.963C633.97 203.802 640.52 197.251 640.52 189.245V174.687H650.225V140.72H616.258V174.687Z" fill="white"/>
</svg>
