<svg width="257" height="88" viewBox="0 0 257 88" fill="none" xmlns="http://www.w3.org/2000/svg">
<path d="M124.362 40.6643C125.383 40.6643 126.185 39.8441 126.185 38.8416V1.8227C126.185 1.07539 125.73 0.41922 125.073 0.145816H125.055C124.855 0.0546808 124.618 0 124.362 0H59.4016C58.3992 0 57.5789 0.820213 57.5789 1.8227V5.32227C61.3884 9.78787 63.685 15.584 63.685 21.8906C63.685 28.1971 61.4431 33.8839 57.5789 38.386V38.8416C57.5789 39.8441 58.3992 40.6643 59.4016 40.6643H71.8689V85.1928C71.8689 86.1953 72.6891 87.0155 73.6916 87.0155H110.692C111.695 87.0155 112.515 86.1953 112.515 85.1928V40.6643H124.362Z" fill="white"/>
<path d="M46.6974 45.3122L42.6693 43.6353L46.6974 41.9402C49.4862 40.7737 51.9286 39.0786 53.9335 36.9825C54.6079 36.3081 55.2094 35.579 55.7562 34.8135C56.4489 33.9021 57.0686 32.9361 57.5789 31.9154C59.1647 28.8897 60.0396 25.4631 60.0396 21.8906C60.0396 18.3181 59.1465 14.8185 57.5789 11.7928C57.0504 10.7539 56.4306 9.78787 55.7562 8.8583C55.1912 8.09277 54.5897 7.38192 53.9335 6.70752C49.9783 2.57 44.4191 0 38.2766 0H1.8227C0.820213 0 0 0.820213 0 1.8227V85.1928C0 86.1953 0.820213 87.0155 1.8227 87.0155H38.2766C50.2699 87.0155 60.0396 77.264 60.0396 65.2707C60.0396 56.5218 54.8084 48.6842 46.6974 45.3122Z" fill="white"/>
<path d="M255.177 0H216.901C215.898 0 215.078 0.820213 215.078 1.8227V41.922C215.078 42.9245 215.898 43.7447 216.901 43.7447H232.394V41.0106H243.33V43.7447H255.177C256.18 43.7447 257 42.9245 257 41.922V1.8227C257 0.820213 256.18 0 255.177 0ZM236.695 29.6188H235.365V30.9494H230.024V32.2982H228.675V34.9593H236.695V37.6387H226.014V30.9494H227.345V29.6188H228.675V28.2882H234.034V25.6089H228.675V26.9394H226.014V24.2783H227.345V22.9295H235.365V24.2783H236.695V29.6188ZM236.695 12.1574H235.365V13.4879H230.024V14.8367H228.675V17.4979H236.695V20.1772H226.014V13.4879H227.345V12.1574H228.675V10.8268H234.034V8.14745H228.675V9.47801H226.014V6.81688H227.345V5.46809H235.365V6.81688H236.695V12.1574ZM247.887 26.9394H245.207V25.6089H241.197V26.9394H239.867V28.2882H245.207V29.6188H246.538V30.9494H247.887V36.3081H246.538V37.6387H239.867V36.3081H238.518V34.9593H237.187V25.6089H238.518V24.2783H239.867V22.9295H246.538V24.2783H247.887V26.9394ZM247.887 18.8467H246.538V20.1772H238.518V18.8467H237.187V6.81688H238.518V5.46809H246.538V6.81688H247.887V18.8467Z" fill="white"/>
<path d="M239.867 33.6287H241.197V34.9593H243.877V33.6287H245.207V32.2982H243.877V30.9494H239.867V33.6287Z" fill="white"/>
<path d="M239.867 13.4879H241.197V12.1574H242.528V10.8268H243.877V9.47801H245.207V8.14745H239.867V13.4879Z" fill="white"/>
<path d="M243.877 13.4879H242.528V14.8367H241.197V16.1673H239.867V17.4979H245.207V12.1574H243.877V13.4879Z" fill="white"/>
<path d="M241.507 42.8333H234.216V50.1241H241.507V42.8333ZM236.95 47.3901H235.128V45.5674H236.95V47.3901ZM240.596 47.3901H238.773V45.5674H240.596V47.3901Z" fill="white"/>
<path d="M231.482 65.617H236.95V71.0851C236.95 72.0876 236.13 72.9078 235.128 72.9078H210.959V1.8227C210.959 0.820213 210.139 0 209.136 0H129.502C129.721 0.565035 129.831 1.18475 129.831 1.8227V38.8416C129.831 41.8491 127.388 44.3097 124.362 44.3097H123.943V82.6592C123.943 83.7893 124.8 84.2267 125.055 84.3361C125.31 84.4455 126.24 84.7371 127.042 83.9533L167.688 43.7447L207.842 83.9169C208.644 84.7189 209.555 84.409 209.829 84.2996C210.084 84.1903 210.959 83.7528 210.959 82.6228V76.5532H235.128C238.135 76.5532 240.596 74.0926 240.596 71.0851V65.617H244.241V52.8582H231.482V65.617Z" fill="white"/>
</svg>
